<?xml version="1.0" encoding="utf-8"?>
<!-- Generator: Adobe Illustrator 26.0.0, SVG Export Plug-In . SVG Version: 6.00 Build 0)  -->
<svg version="1.1" xmlns="http://www.w3.org/2000/svg" xmlns:xlink="http://www.w3.org/1999/xlink" x="0px" y="0px"
	 viewBox="0 0 1080 1080" style="enable-background:new 0 0 1080 1080;" xml:space="preserve">
<style type="text/css">
	.st0{fill:#6BC7AB;}
	.st1{fill:#357762;}
	.st2{fill:#3C976E;}
	.st3{fill:#022D26;}
</style>
<g id="Layer_1">
</g>
<g id="Layer_2">
	<g>
		<g>
			<g>
				<path class="st0" d="M225.67,557.73c-1.02,11.22-5.83,22.15-14.41,30.74l-8.38,8.39l-4.57,4.57l-3.83,3.82l-75.39,75.39
					c-6.64,6.64-15.35,9.96-24.05,9.96c-8.71,0-17.41-3.32-24.06-9.96c-13.29-13.29-13.29-34.83,0-48.11l44.06-44.06
					c19.5-19.5,19.5-51.12,0-70.61l-44.06-44.06c-13.29-13.29-13.29-34.83,0-48.11c13.29-13.29,34.83-13.29,48.11,0l92.18,92.18
					C222.16,528.76,226.98,543.47,225.67,557.73z"/>
			</g>
			<g>
				<path class="st1" d="M225.67,557.73c-1.02,11.22-5.83,22.15-14.41,30.74l-8.38,8.39l-4.57,4.57l-30.14-30.14
					c-19.5-19.49-19.5-51.11,0-70.61l8.39-8.38l34.7,34.7C219.83,535.57,224.65,546.51,225.67,557.73z"/>
			</g>
			<g>
				<path class="st2" d="M293.47,664.29c-8.71,0-17.41-3.32-24.06-9.96l-92.18-92.18c-19.5-19.5-19.5-51.11,0-70.61l92.18-92.18
					c13.29-13.29,34.83-13.29,48.11,0c13.29,13.29,13.29,34.83,0,48.11l-44.06,44.06c-19.5,19.5-19.5,51.11,0,70.61l44.06,44.06
					c13.29,13.29,13.29,34.83,0,48.11C310.88,660.97,302.18,664.29,293.47,664.29z"/>
			</g>
		</g>
		<g>
			<g>
				<path class="st3" d="M365.1,490.88c3.11-3.06,6.8-5.4,11.08-7.03c4.28-1.63,9.02-2.45,14.21-2.45c5.4,0,10.39,0.99,14.98,2.98
					s8.81,5.02,12.69,9.09l15.89-14.67c-5.2-6.01-11.59-10.6-19.18-13.76c-7.59-3.16-16.12-4.74-25.6-4.74
					c-8.56,0-16.41,1.35-23.54,4.05c-7.13,2.7-13.35,6.55-18.65,11.54c-5.3,4.99-9.4,10.85-12.3,17.58
					c-2.9,6.72-4.36,14.11-4.36,22.16c0,8.05,1.45,15.44,4.36,22.16c2.9,6.73,6.98,12.59,12.23,17.58
					c5.25,4.99,11.41,8.84,18.49,11.54c7.08,2.7,14.85,4.05,23.31,4.05c7.64,0,15.31-1.17,23-3.51c7.69-2.34,14.44-5.7,20.25-10.09
					v-43.4h-22.62v31.41c-1.64,0.85-3.29,1.57-4.97,2.14c-4.64,1.58-9.4,2.37-14.29,2.37c-5.1,0-9.76-0.81-13.99-2.45
					c-4.23-1.63-7.9-4-11-7.11c-3.11-3.11-5.5-6.75-7.18-10.93c-1.68-4.18-2.52-8.76-2.52-13.76c0-5.09,0.84-9.73,2.52-13.91
					C359.6,497.55,361.99,493.94,365.1,490.88z"/>
				<polygon class="st3" points="479.5,524.5 529.17,524.5 529.17,505.24 479.5,505.24 479.5,482.01 535.74,482.01 535.74,462.15 
					454.89,462.15 454.89,569.13 537.73,569.13 537.73,549.26 479.5,549.26 				"/>
				<polygon class="st3" points="631.11,527.05 577.92,462.15 557.44,462.15 557.44,569.13 581.89,569.13 581.89,504.19 
					635.23,569.13 655.56,569.13 655.56,462.15 631.11,462.15 				"/>
				<path class="st3" d="M762.54,514.49c-0.94-0.4-1.92-0.75-2.92-1.07c4.14-2.19,7.46-5.14,9.95-8.86
					c2.75-4.13,4.13-8.99,4.13-14.6c0-8.35-3.39-15.08-10.16-20.18c-6.78-5.09-16.89-7.64-30.34-7.64h-52.27v106.98h55.33
					c14.06,0,24.71-2.57,31.94-7.72c7.23-5.14,10.85-12.3,10.85-21.47c0-6.21-1.45-11.46-4.35-15.74
					C771.79,519.92,767.74,516.68,762.54,514.49z M730.14,480.79c6.01,0,10.62,1.05,13.83,3.13c3.21,2.09,4.81,5.22,4.81,9.4
					c0,4.28-1.6,7.47-4.81,9.55c-3.21,2.09-7.82,3.13-13.83,3.13h-24.61v-25.22H730.14z M749.02,547.35
					c-3.31,2.09-8.18,3.13-14.6,3.13h-28.88v-26.44h28.88c6.42,0,11.28,1.1,14.6,3.29c3.31,2.19,4.97,5.53,4.97,10.01
					C753.99,541.92,752.33,545.26,749.02,547.35z"/>
				<path class="st3" d="M891.46,476.05c-5.25-4.99-11.41-8.86-18.49-11.62s-14.85-4.13-23.31-4.13c-8.36,0-16.1,1.38-23.23,4.13
					c-7.13,2.75-13.35,6.62-18.65,11.62c-5.3,4.99-9.4,10.85-12.3,17.57c-2.9,6.73-4.36,14.06-4.36,22.01s1.45,15.28,4.36,22.01
					c2.9,6.72,6.98,12.59,12.23,17.58c5.25,4.99,11.46,8.86,18.65,11.62c7.18,2.75,15,4.13,23.46,4.13c8.35,0,16.07-1.37,23.15-4.13
					c7.08-2.75,13.24-6.6,18.49-11.54c5.25-4.94,9.35-10.8,12.3-17.58c2.95-6.78,4.43-14.14,4.43-22.09
					c0-8.05-1.48-15.41-4.43-22.08C900.81,486.88,896.71,481.05,891.46,476.05z M880.61,529.55c-1.68,4.18-4.05,7.8-7.11,10.85
					c-3.06,3.06-6.6,5.4-10.62,7.03c-4.03,1.63-8.43,2.45-13.22,2.45c-4.79,0-9.22-0.81-13.3-2.45c-4.07-1.63-7.62-3.97-10.62-7.03
					c-3.01-3.06-5.35-6.7-7.03-10.93c-1.68-4.23-2.52-8.84-2.52-13.83c0-5.09,0.84-9.73,2.52-13.91c1.68-4.18,4.05-7.79,7.11-10.85
					c3.06-3.06,6.6-5.4,10.62-7.03c4.02-1.63,8.43-2.45,13.22-2.45c4.79,0,9.22,0.82,13.3,2.45c4.07,1.63,7.61,3.97,10.62,7.03
					c3,3.06,5.35,6.68,7.03,10.85c1.68,4.18,2.52,8.81,2.52,13.91C883.13,520.73,882.29,525.37,880.61,529.55z"/>
				<polygon class="st3" points="1019,569.13 979.09,513.81 1016.4,462.15 989.5,462.15 965.43,496.78 940.9,462.15 912.78,462.15 
					950.3,514.65 910.79,569.13 939.22,569.13 964.63,531.95 990.42,569.13 				"/>
			</g>
			<g>
				<path class="st3" d="M360.23,588.03v3.33h-8.54v28.01h-4.09v-28.01H339v-3.33H360.23z"/>
				<path class="st3" d="M385,617.64c-2.4-1.36-4.29-3.27-5.69-5.71c-1.39-2.44-2.09-5.19-2.09-8.25c0-3.06,0.7-5.81,2.09-8.25
					c1.39-2.44,3.29-4.35,5.69-5.71c2.4-1.36,5.05-2.05,7.96-2.05c2.94,0,5.61,0.68,8,2.05c2.4,1.36,4.29,3.26,5.67,5.69
					c1.38,2.43,2.07,5.19,2.07,8.27c0,3.09-0.69,5.85-2.07,8.27c-1.38,2.43-3.27,4.32-5.67,5.69c-2.4,1.36-5.07,2.05-8,2.05
					C390.05,619.69,387.4,619.01,385,617.64z M398.87,614.61c1.75-1.02,3.13-2.47,4.14-4.36c1-1.89,1.51-4.08,1.51-6.57
					c0-2.52-0.5-4.71-1.51-6.59c-1.01-1.87-2.38-3.32-4.11-4.34c-1.74-1.02-3.72-1.53-5.94-1.53c-2.22,0-4.2,0.51-5.94,1.53
					s-3.11,2.47-4.11,4.34c-1,1.87-1.51,4.07-1.51,6.59c0,2.49,0.5,4.68,1.51,6.57c1,1.89,2.38,3.34,4.14,4.36
					c1.75,1.02,3.72,1.53,5.91,1.53C395.15,616.14,397.12,615.63,398.87,614.61z"/>
				<path class="st3" d="M459.38,588.26v31.12h-4.09v-23.2l-10.34,23.2h-2.88l-10.39-23.25v23.25h-4.09v-31.12h4.41l11.51,25.72
					l11.51-25.72H459.38z"/>
				<path class="st3" d="M486.05,617.64c-2.4-1.36-4.29-3.27-5.69-5.71c-1.39-2.44-2.09-5.19-2.09-8.25c0-3.06,0.7-5.81,2.09-8.25
					c1.39-2.44,3.29-4.35,5.69-5.71c2.4-1.36,5.05-2.05,7.96-2.05c2.94,0,5.6,0.68,8,2.05c2.4,1.36,4.29,3.26,5.67,5.69
					s2.07,5.19,2.07,8.27c0,3.09-0.69,5.85-2.07,8.27c-1.38,2.43-3.27,4.32-5.67,5.69c-2.4,1.36-5.07,2.05-8,2.05
					C491.1,619.69,488.44,619.01,486.05,617.64z M499.92,614.61c1.75-1.02,3.13-2.47,4.14-4.36c1-1.89,1.51-4.08,1.51-6.57
					c0-2.52-0.5-4.71-1.51-6.59c-1-1.87-2.38-3.32-4.11-4.34c-1.74-1.02-3.72-1.53-5.93-1.53c-2.22,0-4.2,0.51-5.94,1.53
					c-1.74,1.02-3.11,2.47-4.11,4.34c-1,1.87-1.51,4.07-1.51,6.59c0,2.49,0.5,4.68,1.51,6.57c1,1.89,2.38,3.34,4.14,4.36
					c1.75,1.02,3.73,1.53,5.91,1.53C496.19,616.14,498.16,615.63,499.92,614.61z"/>
				<path class="st3" d="M545.13,619.37l-7.46-12.82h-4.95v12.82h-4.09v-31.34h10.12c2.37,0,4.37,0.41,6,1.21
					c1.63,0.81,2.86,1.9,3.66,3.28s1.21,2.95,1.21,4.72c0,2.16-0.62,4.06-1.87,5.71c-1.24,1.65-3.11,2.74-5.6,3.28l7.87,13.13
					H545.13z M532.72,603.27h6.03c2.22,0,3.88-0.55,4.99-1.64c1.11-1.09,1.66-2.55,1.66-4.38c0-1.86-0.55-3.3-1.64-4.32
					c-1.09-1.02-2.77-1.53-5.01-1.53h-6.03V603.27z"/>
				<path class="st3" d="M585.96,619.37l-7.46-12.82h-4.95v12.82h-4.09v-31.34h10.12c2.37,0,4.37,0.41,6,1.21
					c1.63,0.81,2.86,1.9,3.66,3.28c0.81,1.38,1.21,2.95,1.21,4.72c0,2.16-0.62,4.06-1.87,5.71c-1.24,1.65-3.11,2.74-5.6,3.28
					l7.87,13.13H585.96z M573.55,603.27h6.03c2.22,0,3.88-0.55,4.99-1.64c1.11-1.09,1.66-2.55,1.66-4.38c0-1.86-0.55-3.3-1.64-4.32
					c-1.09-1.02-2.77-1.53-5.01-1.53h-6.03V603.27z"/>
				<path class="st3" d="M616.54,617.64c-2.4-1.36-4.29-3.27-5.69-5.71c-1.39-2.44-2.09-5.19-2.09-8.25c0-3.06,0.7-5.81,2.09-8.25
					c1.39-2.44,3.29-4.35,5.69-5.71c2.4-1.36,5.05-2.05,7.96-2.05c2.94,0,5.61,0.68,8,2.05c2.4,1.36,4.29,3.26,5.67,5.69
					c1.38,2.43,2.07,5.19,2.07,8.27c0,3.09-0.69,5.85-2.07,8.27c-1.38,2.43-3.27,4.32-5.67,5.69c-2.4,1.36-5.07,2.05-8,2.05
					C621.59,619.69,618.94,619.01,616.54,617.64z M630.41,614.61c1.75-1.02,3.13-2.47,4.14-4.36c1-1.89,1.51-4.08,1.51-6.57
					c0-2.52-0.5-4.71-1.51-6.59c-1.01-1.87-2.38-3.32-4.11-4.34c-1.74-1.02-3.72-1.53-5.94-1.53s-4.2,0.51-5.94,1.53
					c-1.74,1.02-3.11,2.47-4.11,4.34c-1,1.87-1.51,4.07-1.51,6.59c0,2.49,0.5,4.68,1.51,6.57c1,1.89,2.38,3.34,4.14,4.36
					c1.75,1.02,3.72,1.53,5.91,1.53C626.69,616.14,628.66,615.63,630.41,614.61z"/>
				<path class="st3" d="M698.52,588.03l-9.08,31.34h-4.59l-7.28-25.23l-7.56,25.23l-4.54,0.05l-8.77-31.39h4.36l6.84,26.58
					l7.56-26.58h4.59l7.19,26.49l6.88-26.49H698.52z"/>
				<path class="st3" d="M746.09,588.03v31.34H742v-31.34H746.09z"/>
				<path class="st3" d="M770.94,618.59c-1.63-0.73-2.92-1.75-3.84-3.06c-0.93-1.3-1.41-2.81-1.44-4.52h4.36
					c0.15,1.47,0.76,2.71,1.82,3.71c1.06,1,2.62,1.51,4.65,1.51c1.95,0,3.49-0.49,4.61-1.46c1.12-0.97,1.69-2.23,1.69-3.76
					c0-1.2-0.33-2.17-0.99-2.92c-0.66-0.75-1.48-1.32-2.47-1.71c-0.99-0.39-2.32-0.81-4-1.26c-2.07-0.54-3.73-1.08-4.97-1.62
					c-1.24-0.54-2.31-1.39-3.19-2.54c-0.88-1.15-1.33-2.71-1.33-4.65c0-1.71,0.43-3.22,1.3-4.54c0.87-1.32,2.09-2.34,3.66-3.06
					c1.57-0.72,3.38-1.08,5.42-1.08c2.94,0,5.34,0.74,7.22,2.2c1.87,1.47,2.93,3.42,3.17,5.85h-4.5c-0.15-1.2-0.78-2.26-1.89-3.17
					c-1.11-0.91-2.58-1.37-4.41-1.37c-1.71,0-3.1,0.44-4.18,1.33c-1.08,0.88-1.62,2.12-1.62,3.71c0,1.14,0.32,2.07,0.97,2.79
					c0.64,0.72,1.44,1.27,2.38,1.64c0.94,0.38,2.27,0.8,3.98,1.28c2.07,0.57,3.73,1.13,4.99,1.69c1.26,0.55,2.34,1.41,3.24,2.56
					c0.9,1.15,1.35,2.72,1.35,4.7c0,1.53-0.41,2.97-1.21,4.32c-0.81,1.35-2.01,2.44-3.6,3.28c-1.59,0.84-3.46,1.26-5.62,1.26
					C774.42,619.69,772.57,619.32,770.94,618.59z"/>
				<path class="st3" d="M855.68,597.11c-0.87-1.83-2.13-3.25-3.78-4.25c-1.65-1-3.57-1.51-5.76-1.51c-2.19,0-4.16,0.5-5.91,1.51
					c-1.75,1-3.13,2.44-4.14,4.32c-1,1.87-1.51,4.04-1.51,6.5c0,2.46,0.5,4.62,1.51,6.48c1,1.86,2.38,3.29,4.14,4.29
					c1.75,1,3.72,1.51,5.91,1.51c3.06,0,5.58-0.91,7.55-2.74c1.98-1.83,3.13-4.3,3.46-7.42h-12.5v-3.33h16.86v3.15
					c-0.24,2.58-1.05,4.94-2.43,7.08c-1.38,2.14-3.19,3.84-5.44,5.08c-2.25,1.24-4.75,1.87-7.51,1.87c-2.91,0-5.56-0.68-7.96-2.05
					c-2.4-1.36-4.29-3.26-5.69-5.69c-1.39-2.43-2.09-5.17-2.09-8.23c0-3.06,0.7-5.81,2.09-8.25c1.39-2.44,3.29-4.35,5.69-5.71
					c2.4-1.36,5.05-2.05,7.96-2.05c3.33,0,6.27,0.83,8.84,2.47c2.56,1.65,4.43,3.97,5.6,6.97H855.68z"/>
				<path class="st3" d="M896.91,619.37l-7.46-12.82h-4.95v12.82h-4.09v-31.34h10.12c2.37,0,4.37,0.41,6,1.21
					c1.63,0.81,2.86,1.9,3.67,3.28c0.81,1.38,1.21,2.95,1.21,4.72c0,2.16-0.62,4.06-1.87,5.71c-1.24,1.65-3.11,2.74-5.6,3.28
					l7.87,13.13H896.91z M884.5,603.27h6.02c2.22,0,3.88-0.55,4.99-1.64c1.11-1.09,1.66-2.55,1.66-4.38c0-1.86-0.55-3.3-1.64-4.32
					s-2.77-1.53-5.01-1.53h-6.02V603.27z"/>
				<path class="st3" d="M925.33,591.36v10.48h11.42v3.37h-11.42V616h12.77v3.37h-16.86v-31.39h16.86v3.37H925.33z"/>
				<path class="st3" d="M961.89,591.36v10.48h11.42v3.37h-11.42V616h12.77v3.37H957.8v-31.39h16.86v3.37H961.89z"/>
				<path class="st3" d="M1019,619.37h-4.09l-16.46-24.96v24.96h-4.09v-31.39h4.09l16.46,24.91v-24.91h4.09V619.37z"/>
			</g>
		</g>
	</g>
</g>
</svg>
